<svg width="32" height="32" viewBox="0 0 32 32" fill="none" xmlns="http://www.w3.org/2000/svg">
  <rect width="32" height="32" rx="8" fill="#098936"/>
  <path d="M10 12C10 10.8954 10.8954 10 12 10H14C15.1046 10 16 10.8954 16 12V20C16 21.1046 15.1046 22 14 22H12C10.8954 22 10 21.1046 10 20V12Z" fill="white"/>
  <path d="M18 10H20C21.1046 10 22 10.8954 22 12V20C22 21.1046 21.1046 22 20 22H18V10Z" fill="white" opacity="0.7"/>
  <circle cx="16" cy="16" r="3" fill="#098936"/>
  <path d="M16 8L18 10L16 12L14 10L16 8Z" fill="white"/>
</svg>

